<mxfile host="app.diagrams.net" modified="2021-07-29T15:26:31.296Z" agent="5.0 (Windows NT 10.0; Win64; x64) AppleWebKit/537.36 (KHTML, like Gecko) Chrome/92.0.4515.107 Safari/537.36" etag="CrfUYcODCik8cwNQ_4NQ" version="14.9.3" type="github">
  <diagram id="JLjlHwbbxvtKl8yNZB4s" name="Page-1">
    <mxGraphModel dx="462" dy="761" grid="1" gridSize="10" guides="1" tooltips="1" connect="1" arrows="1" fold="1" page="1" pageScale="1" pageWidth="827" pageHeight="1169" math="0" shadow="0">
      <root>
        <mxCell id="0" />
        <mxCell id="1" parent="0" />
        <mxCell id="oSVcaLP9_83Y_LdMqERl-6" style="edgeStyle=orthogonalEdgeStyle;rounded=0;orthogonalLoop=1;jettySize=auto;html=1;exitX=0.5;exitY=1;exitDx=0;exitDy=0;" edge="1" parent="1" source="oSVcaLP9_83Y_LdMqERl-1" target="oSVcaLP9_83Y_LdMqERl-5">
          <mxGeometry relative="1" as="geometry">
            <mxPoint x="230" y="220" as="targetPoint" />
            <mxPoint x="240" y="130" as="sourcePoint" />
            <Array as="points">
              <mxPoint x="230" y="310" />
              <mxPoint x="230" y="310" />
            </Array>
          </mxGeometry>
        </mxCell>
        <mxCell id="oSVcaLP9_83Y_LdMqERl-1" value="baÅŸla" style="ellipse;whiteSpace=wrap;html=1;" vertex="1" parent="1">
          <mxGeometry x="170" y="20" width="120" height="80" as="geometry" />
        </mxCell>
        <mxCell id="oSVcaLP9_83Y_LdMqERl-10" value="" style="edgeStyle=orthogonalEdgeStyle;rounded=0;orthogonalLoop=1;jettySize=auto;html=1;" edge="1" parent="1" source="oSVcaLP9_83Y_LdMqERl-2" target="oSVcaLP9_83Y_LdMqERl-1">
          <mxGeometry relative="1" as="geometry" />
        </mxCell>
        <mxCell id="oSVcaLP9_83Y_LdMqERl-2" value="sayi1" style="shape=parallelogram;perimeter=parallelogramPerimeter;whiteSpace=wrap;html=1;fixedSize=1;" vertex="1" parent="1">
          <mxGeometry x="170" y="140" width="120" height="60" as="geometry" />
        </mxCell>
        <mxCell id="oSVcaLP9_83Y_LdMqERl-9" value="" style="edgeStyle=orthogonalEdgeStyle;rounded=0;orthogonalLoop=1;jettySize=auto;html=1;" edge="1" parent="1" source="oSVcaLP9_83Y_LdMqERl-3" target="oSVcaLP9_83Y_LdMqERl-2">
          <mxGeometry relative="1" as="geometry" />
        </mxCell>
        <mxCell id="oSVcaLP9_83Y_LdMqERl-3" value="sayi2" style="shape=parallelogram;perimeter=parallelogramPerimeter;whiteSpace=wrap;html=1;fixedSize=1;" vertex="1" parent="1">
          <mxGeometry x="160" y="240" width="120" height="60" as="geometry" />
        </mxCell>
        <mxCell id="oSVcaLP9_83Y_LdMqERl-8" value="" style="edgeStyle=orthogonalEdgeStyle;rounded=0;orthogonalLoop=1;jettySize=auto;html=1;" edge="1" parent="1" source="oSVcaLP9_83Y_LdMqERl-4" target="oSVcaLP9_83Y_LdMqERl-3">
          <mxGeometry relative="1" as="geometry" />
        </mxCell>
        <mxCell id="oSVcaLP9_83Y_LdMqERl-4" value="sayi1+sayi2" style="shape=document;whiteSpace=wrap;html=1;boundedLbl=1;" vertex="1" parent="1">
          <mxGeometry x="160" y="340" width="120" height="80" as="geometry" />
        </mxCell>
        <mxCell id="oSVcaLP9_83Y_LdMqERl-7" value="" style="edgeStyle=orthogonalEdgeStyle;rounded=0;orthogonalLoop=1;jettySize=auto;html=1;" edge="1" parent="1" source="oSVcaLP9_83Y_LdMqERl-5" target="oSVcaLP9_83Y_LdMqERl-4">
          <mxGeometry relative="1" as="geometry" />
        </mxCell>
        <mxCell id="oSVcaLP9_83Y_LdMqERl-5" value="son" style="ellipse;whiteSpace=wrap;html=1;" vertex="1" parent="1">
          <mxGeometry x="160" y="460" width="120" height="80" as="geometry" />
        </mxCell>
      </root>
    </mxGraphModel>
  </diagram>
</mxfile>
